<?xml version="1.0" standalone="no"?><!DOCTYPE svg PUBLIC "-//W3C//DTD SVG 1.1//EN" "http://www.w3.org/Graphics/SVG/1.1/DTD/svg11.dtd"><svg t="1580438406690" class="icon" viewBox="0 0 1098 1024" version="1.1" xmlns="http://www.w3.org/2000/svg" p-id="819" xmlns:xlink="http://www.w3.org/1999/xlink" width="214.453125" height="200"><defs><style type="text/css"></style></defs><path d="M1093.569655 423.320091a136.808361 136.808361 0 1 1-273.616722 0 136.808361 136.808361 0 1 1-273.616721 0 138.814883 138.814883 0 0 1-136.62595 140.821406A138.814883 138.814883 0 0 1 273.631546 423.320091a138.814883 138.814883 0 0 1-136.625949 140.821406A138.814883 138.814883 0 0 1 0.014825 423.320091L84.106364 171.045474h925.371751zM916.813253 86.041879H176.588816a47.062076 47.062076 0 0 1-50.345477-42.501797A47.062076 47.062076 0 0 1 176.588816 0.126229h740.224437A47.062076 47.062076 0 0 1 966.793907 43.540082a47.062076 47.062076 0 0 1-50.527888 42.501797z m-706.660786 510.751213v255.375607h673.097134v-255.375607c10.579847 21.524515 29.915428 41.772153 42.136975 41.772153 24.443094 2.371345 31.192306-19.700404 42.136976-42.501797v340.379201a82.267428 82.267428 0 0 1-84.273951 85.186006H210.334878a86.280473 86.280473 0 0 1-84.091539-85.003595V596.245859c5.837157 22.071749 11.856725 42.319386 41.954564 42.319386 24.807916 0 39.218397-28.091317 42.136975-42.501797z m0 0" p-id="820"></path></svg>