<?xml version="1.0" standalone="no"?><!DOCTYPE svg PUBLIC "-//W3C//DTD SVG 1.1//EN" "http://www.w3.org/Graphics/SVG/1.1/DTD/svg11.dtd"><svg t="1580438228951" class="icon" viewBox="0 0 1122 1024" version="1.1" xmlns="http://www.w3.org/2000/svg" p-id="1334" xmlns:xlink="http://www.w3.org/1999/xlink" width="219.140625" height="200"><defs><style type="text/css"></style></defs><path d="M376.551492 811.136296a106.431665 106.431665 0 0 1 40.964033 8.043166A108.302169 108.302169 0 0 1 451.745744 841.812558a97.453247 97.453247 0 0 1 22.820146 33.482017 109.237421 109.237421 0 0 1 0 81.928066 97.453247 97.453247 0 0 1-22.820146 33.482018 116.719436 116.719436 0 0 1-34.043169 22.820146 100.259003 100.259003 0 0 1-40.964033 8.604317 99.1367 99.1367 0 0 1-41.525184-8.604317 119.151091 119.151091 0 0 1-33.482017-22.820146 97.453247 97.453247 0 0 1-22.820146-33.482018 109.237421 109.237421 0 0 1 0-81.928066A97.453247 97.453247 0 0 1 301.54429 841.812558a110.172673 110.172673 0 0 1 33.482018-22.258995 105.309363 105.309363 0 0 1 41.525184-8.043167z m473.237457 2.244604a110.920874 110.920874 0 0 1 41.525183 8.043166 100.259003 100.259003 0 0 1 34.043169 22.258995 109.424471 109.424471 0 0 1 22.820146 33.482018 102.690658 102.690658 0 0 1 0 81.928066 109.424471 109.424471 0 0 1-22.820146 33.482017 107.553967 107.553967 0 0 1-34.043169 22.820147 104.374111 104.374111 0 0 1-41.525183 8.604317 100.446053 100.446053 0 0 1-40.964033-8.604317 107.553967 107.553967 0 0 1-56.115114-56.115114 102.503607 102.503607 0 0 1 0-81.928066 109.237421 109.237421 0 0 1 22.820146-33.482017 101.568355 101.568355 0 0 1 33.482018-22.258995 106.618716 106.618716 0 0 1 40.964033-8.043166zM1040.954435 167.308894a115.971234 115.971234 0 0 1 49.56835 8.604318 56.115113 56.115113 0 0 1 25.064751 21.136692A47.697846 47.697846 0 0 1 1122.321349 224.54631a89.22303 89.22303 0 0 1-3.928058 24.503599l-14.776979 41.151084q-10.848922 31.798564-24.5036 69.956841t-26.748204 74.820151q-13.093526 37.410076-19.82734 59.10792a128.316559 128.316559 0 0 1-37.410076 63.223028 88.287778 88.287778 0 0 1-56.115113 17.582735H342.508323l17.021584 102.316557h573.309409q54.61871 0 54.618711 46.575544a69.956841 69.956841 0 0 1-10.848922 39.280579 47.510796 47.510796 0 0 1-42.647486 16.460434H337.832064a67.151086 67.151086 0 0 1-37.410076-10.287771 86.417275 86.417275 0 0 1-25.625902-26.748204 162.546779 162.546779 0 0 1-16.460433-35.913673 328.273414 328.273414 0 0 1-9.72662-36.474823q-1.122302-6.733814-6.172662-32.920867t-12.532376-65.467632l-16.460433-87.539577q-9.165469-48.258998-18.705038-97.266197Q172.85363 273.179408 145.544275 131.956373H60.249302A46.014393 46.014393 0 0 1 31.817645 123.539106a74.820151 74.820151 0 0 1-18.705038-20.575542 78.93526 78.93526 0 0 1-10.287771-25.438851A123.82735 123.82735 0 0 1 0.019081 52.459962a49.942451 49.942451 0 0 1 15.338131-37.410076A57.424466 57.424466 0 0 1 56.134194 0.085856h115.597134a81.928066 81.928066 0 0 1 36.474824 6.733814 61.726625 61.726625 0 0 1 21.697843 17.021584 66.028783 66.028783 0 0 1 11.410074 21.697844l5.611511 18.705038a256.446068 256.446068 0 0 1 4.489209 25.625902q2.244605 16.460433 4.489209 33.482017 3.366907 20.388491 6.733814 43.208638z m0 0" p-id="1335"></path></svg>