<?xml version="1.0" standalone="no"?><!DOCTYPE svg PUBLIC "-//W3C//DTD SVG 1.1//EN" "http://www.w3.org/Graphics/SVG/1.1/DTD/svg11.dtd"><svg t="1580435658131" class="icon" viewBox="0 0 1024 1024" version="1.1" xmlns="http://www.w3.org/2000/svg" p-id="816" xmlns:xlink="http://www.w3.org/1999/xlink" width="200" height="200"><defs><style type="text/css"></style></defs><path d="M962.61504 944.981333a78.165333 78.165333 0 0 1-9.728 37.205334v2.048a77.994667 77.994667 0 0 1-68.266667 39.424 71.850667 71.850667 0 0 1-8.362666 0 59.562667 59.562667 0 0 1-11.434667 0H159.79904a59.562667 59.562667 0 0 1-11.434667 0 71.850667 71.850667 0 0 1-8.362666 0 77.994667 77.994667 0 0 1-68.266667-39.424v-2.048A78.165333 78.165333 0 0 1 60.98304 944.981333a80.896 80.896 0 0 1 0-17.066666v-28.16a352.085333 352.085333 0 0 1 348.16-356.010667h204.8a352.085333 352.085333 0 0 1 348.672 356.864c0 9.557333 1.194667 18.773333 0 28.16a80.725333 80.725333 0 0 1 0 17.066667z m-450.389333-421.546666a258.901333 258.901333 0 0 1-256-261.632A258.901333 258.901333 0 0 1 512.225707 0a258.901333 258.901333 0 0 1 256 261.632 258.901333 258.901333 0 0 1-256 261.632z m0 0" p-id="817"></path></svg>