<?xml version="1.0" standalone="no"?><!DOCTYPE svg PUBLIC "-//W3C//DTD SVG 1.1//EN" "http://www.w3.org/Graphics/SVG/1.1/DTD/svg11.dtd"><svg t="1580438216858" class="icon" viewBox="0 0 1024 1024" version="1.1" xmlns="http://www.w3.org/2000/svg" p-id="1171" xmlns:xlink="http://www.w3.org/1999/xlink" width="200" height="200"><defs><style type="text/css"></style></defs><path d="M804.522667 560.810667H560.810667v243.712A219.477333 219.477333 0 0 0 780.117333 1024h24.405334A219.477333 219.477333 0 0 0 1024 804.522667v-24.405334a219.477333 219.477333 0 0 0-219.477333-219.306666zM219.477333 560.810667A219.477333 219.477333 0 0 0 0 780.117333v24.405334A219.477333 219.477333 0 0 0 219.477333 1024h24.405334a219.477333 219.477333 0 0 0 219.306666-219.477333V560.810667zM243.882667 0h-24.405334A219.477333 219.477333 0 0 0 0 219.477333v24.405334a219.477333 219.477333 0 0 0 219.477333 219.306666h243.712V219.477333A219.477333 219.477333 0 0 0 243.882667 0z" p-id="1172" fill="#1296db"></path><path d="M804.522667 71.509333a147.968 147.968 0 0 1 147.797333 147.968v24.405334A147.968 147.968 0 0 1 804.522667 392.533333H631.466667V219.477333a148.138667 148.138667 0 0 1 147.968-147.968h24.405333m0-71.509333h-23.722667a219.477333 219.477333 0 0 0-219.306666 219.477333v243.712h243.712A219.477333 219.477333 0 0 0 1024 243.882667v-24.405334A219.477333 219.477333 0 0 0 804.522667 0z" p-id="1173" fill="#1296db"></path></svg>